<svg version="1.0" xmlns="http://www.w3.org/2000/svg" width="2034.000000pt" height="2034.000000pt" viewBox="0 0 2034.000000 2034.000000" preserveAspectRatio="xMidYMid meet">
	
  <style>
  path {
    fill: black;
  }
  @media (prefers-color-scheme: dark) {
    path {
      fill: white;
    }
  }
  </style>

  <g transform="translate(0.000000,2034.000000) scale(0.100000,-0.100000)" stroke="none">
		<path d="M4955 14839 c-1219 -69 -2354 -449 -3165 -1060 -243 -183 -530 -457
-702 -669 -563 -698 -872 -1550 -939 -2590 -15 -234 -6 -792 16 -1025 93 -982
329 -1721 750 -2355 660 -992 1761 -1589 3228 -1749 308 -34 507 -43 902 -43
618 0 1131 42 1580 128 224 44 513 122 588 160 l27 15 0 760 0 761 -22 -5
c-13 -3 -84 -31 -158 -62 -387 -163 -887 -295 -1325 -351 -198 -26 -641 -26
-810 -1 -909 137 -1691 558 -2186 1178 -461 579 -673 1321 -629 2203 45 905
264 1568 711 2146 88 114 302 330 419 424 418 333 909 535 1485 613 179 24
665 24 885 0 396 -44 743 -127 1051 -252 196 -80 402 -193 518 -285 l51 -40 0
820 0 819 -72 52 c-433 305 -1274 461 -2203 408z" />
		<path d="M13880 11485 c0 -2460 -3 -3215 -12 -3215 -17 0 -282 270 -377 385
-142 172 -310 401 -476 650 -145 217 -222 343 -555 904 -407 687 -1043 1485
-1730 2171 -1124 1123 -2228 1806 -3186 1970 -64 11 -120 20 -125 20 -5 0 -9
-1803 -9 -4415 l0 -4415 918 2 917 3 5 2953 5 2953 165 -168 c691 -701 1380
-1614 1993 -2638 718 -1199 1539 -2100 2397 -2629 523 -322 1025 -504 1764
-636 122 -22 231 -42 244 -45 l22 -5 0 4685 0 4685 -980 0 -980 0 0 -3215z" />
		<path d="M17908 11218 l-3 -3483 -23 -80 c-93 -324 -319 -554 -654 -666 -299
-100 -714 -109 -1160 -25 -37 7 -70 11 -73 8 -3 -3 -5 -376 -5 -828 0 -775 1
-823 18 -828 30 -9 242 -45 357 -60 355 -49 825 -74 1045 -57 554 44 1125 263
1547 593 442 346 737 832 852 1405 59 288 55 19 58 3926 l3 3577 -980 0 -980
0 -2 -3482z" />
	</g>

</svg>
