<svg xmlns="http://www.w3.org/2000/svg"  viewBox="0 0 16 16" width="40px" height="40px"><path fill="#bae0bd" d="M6,14.5L6,14.5c-1.381,0-2.5-1.119-2.5-2.5l0,0c0-1.381,1.119-2.5,2.5-2.5h2.5V12 C8.5,13.381,7.381,14.5,6,14.5z"/><circle cx="11.5" cy="8.5" r="2" fill="#c2fbff"/><path fill="none" stroke="#5e9c76" stroke-linecap="round" stroke-linejoin="round" stroke-miterlimit="10" d="M6,14.5L6,14.5 c-1.381,0-2.5-1.119-2.5-2.5l0,0c0-1.381,1.119-2.5,2.5-2.5h2.5V12C8.5,13.381,7.381,14.5,6,14.5z"/><circle cx="11.5" cy="8.5" r="2" fill="none" stroke="#689dba" stroke-linecap="round" stroke-linejoin="round" stroke-miterlimit="10"/><path fill="#f78fae" d="M11.5,5.5c1.105,0,2-0.895,2-2s-0.895-2-2-2h-3v4H11.5z"/><path fill="none" stroke="#c7435b" stroke-linecap="round" stroke-linejoin="round" stroke-miterlimit="10" d="M11.5,5.5 c1.105,0,2-0.895,2-2s-0.895-2-2-2h-3v4H11.5z"/><path fill="#f78f8f" d="M5.5,1.5c-1.105,0-2,0.895-2,2s0.895,2,2,2h3v-4H5.5z"/><path fill="#bdc9f2" d="M5.5,5.5c-1.105,0-2,0.895-2,2s0.895,2,2,2h3v-4H5.5z"/><path fill="none" stroke="#7575a1" stroke-linecap="round" stroke-linejoin="round" stroke-miterlimit="10" d="M5.5,5.5 c-1.105,0-2,0.895-2,2s0.895,2,2,2h3v-4H5.5z"/><path fill="none" stroke="#c74343" stroke-linecap="round" stroke-linejoin="round" stroke-miterlimit="10" d="M5.5,1.5 c-1.105,0-2,0.895-2,2s0.895,2,2,2h3v-4H5.5z"/></svg>